<svg width="40" height="39" viewBox="0 0 40 39" fill="none" xmlns="http://www.w3.org/2000/svg">
<rect width="40" height="40" rx="6" fill="#EE0033"/>
<path d="M17.8205 5.13708H14.6891C13.8957 5.13708 13.1342 5.45269 12.5739 6.01297C12.0136 6.5747 11.698 7.33477 11.698 8.12814V31.1763C11.698 31.5687 11.7762 31.9581 11.9253 32.3215C12.0759 32.6849 12.2959 33.0135 12.5739 33.2915C12.8519 33.5695 13.1819 33.7895 13.5453 33.9401C13.9087 34.0906 14.2967 34.1674 14.6905 34.1674H17.822C17.9204 34.1674 18.0174 34.1486 18.1086 34.1109C18.1998 34.0733 18.2824 34.0183 18.3519 33.9488C18.4214 33.8793 18.4764 33.7967 18.514 33.7055C18.5516 33.6143 18.5705 33.5173 18.5705 33.4189V31.1807C18.5705 30.9823 18.4908 30.7927 18.3519 30.6522C18.2114 30.5118 18.0218 30.4336 17.8234 30.4336H12.9633V8.86794H17.8234C18.0218 8.86649 18.2114 8.78686 18.3504 8.64498C18.4894 8.50455 18.5676 8.31345 18.5661 8.11511V5.88557C18.5661 5.68868 18.4879 5.49902 18.349 5.35859C18.21 5.21816 18.0218 5.13853 17.8234 5.13708H17.8205Z" fill="white"/>
<path d="M26.0018 5.13711H22.8703C22.672 5.13711 22.4823 5.21673 22.3419 5.35716C22.2015 5.49759 22.1233 5.68725 22.1233 5.88559V8.11513C22.1233 8.31347 22.2015 8.50312 22.3419 8.64356C22.4823 8.78399 22.672 8.86217 22.8703 8.86361H27.7319V30.4394H22.8703C22.672 30.4394 22.4823 30.5191 22.3419 30.6595C22.2015 30.7999 22.1233 30.9896 22.1233 31.1879V33.4218C22.1233 33.6201 22.2015 33.8098 22.3419 33.9502C22.4823 34.0907 22.672 34.1688 22.8703 34.1703H26.0018C26.3956 34.1703 26.785 34.0936 27.1499 33.9444C27.5133 33.7939 27.8448 33.5738 28.1228 33.2958C28.4007 33.0179 28.6222 32.6878 28.7728 32.323C28.9234 31.9596 29.0001 31.5701 29.0001 31.1763V8.1296C29.0001 7.73582 28.9219 7.34637 28.7714 6.98299C28.6208 6.6196 28.3993 6.28951 28.1213 6.01155C27.8434 5.73358 27.5118 5.51352 27.1484 5.36295C26.785 5.21239 26.3956 5.13566 26.0018 5.13711Z" fill="white"/>
</svg>
